<svg xmlns="http://www.w3.org/2000/svg" viewBox="0 0 512 512"><path fill="currentColor" d="M487.4 315.7l-42.7-24.7c3.1-15.6 3.1-31.5 0-47.1l42.7-24.7c7.6-4.4 10.5-14 6.3-21.7l-45.5-78.8c-4.4-7.6-14-10.5-21.7-6.3l-42.7 24.7c-12.5-10.7-26.4-19.4-41.6-26l-6.5-49.3C336.1 3.6 328.4-2 319.6 0l-90.2 23.1c-8.8 2.3-15.2 10.1-15.2 19.2v49.4c-15.2 6.6-29.1 15.3-41.6 26l-42.7-24.7c-7.6-4.4-17.2-1.3-21.6 6.3l-45.5 78.8c-4.4 7.6-1.3 17.2 6.3 21.7l42.7 24.7c-3.1 15.6-3.1 31.5 0 47.1l-42.7 24.7c-7.6 4.4-10.5 14-6.3 21.7l45.5 78.8c4.4 7.6 14 10.5 21.6 6.3l42.7-24.7c12.5 10.7 26.4 19.4 41.6 26v49.4c0 9.1 6.4 16.9 15.2 19.2l90.2 23.1c8.8 2.3 17.5-3.6 19.1-12.3l6.5-49.3c15.2-6.6 29.1-15.3 41.6-26l42.7 24.7c7.6 4.4 17.3 1.3 21.7-6.3l45.5-78.8c4.4-7.6 1.4-17.2-6.3-21.7zM256 336c-44.2 0-80-35.8-80-80 0-44.2 35.8-80 80-80s80 35.8 80 80-35.8 80-80 80z"/></svg> 