<svg xmlns="http://www.w3.org/2000/svg" viewBox="0 0 24 24" fill="none" stroke="#000000" stroke-width="0" shape-rendering="geometricPrecision">
  <path fill="currentColor" d="M12 .5C5.73.5.98 5.24.98 11.52c0 4.86 3.16 8.98 7.55 10.43.55.1.75-.24.75-.53 0-.26-.01-1.11-.02-2.02-3.07.67-3.72-1.31-3.72-1.31-.5-1.27-1.22-1.61-1.22-1.61-.99-.68.07-.67.07-.67 1.1.08 1.68 1.13 1.68 1.13.98 1.68 2.57 1.2 3.2.92.1-.71.38-1.2.69-1.48-2.45-.28-5.02-1.23-5.02-5.47 0-1.21.43-2.19 1.12-2.96-.11-.28-.49-1.42.11-2.95 0 0 .93-.3 3.05 1.13.88-.24 1.83-.36 2.77-.36.94 0 1.89.12 2.77.36 2.12-1.43 3.05-1.13 3.05-1.13.6 1.53.22 2.67.11 2.95.69.77 1.12 1.75 1.12 2.96 0 4.25-2.58 5.18-5.04 5.46.39.34.73 1.01.73 2.04 0 1.47-.01 2.65-.01 3.01 0 .29.2.64.76.53 4.38-1.46 7.54-5.57 7.54-10.43C23.02 5.24 18.27.5 12 .5Z"/>
</svg>

